<svg xmlns="http://www.w3.org/2000/svg" xmlns:xlink="http://www.w3.org/1999/xlink" viewBox="0 0 14.62 14.62"><defs><style>.cls-1{fill:none;}.cls-2{clip-path:url(#clip-path);}.cls-3{fill:#fff;}</style><clipPath id="clip-path" transform="translate(-0.27 -0.16)"><path class="cls-1" d="M1.87,0H13.13A1.88,1.88,0,0,1,15,1.88V13.13A1.88,1.88,0,0,1,13.13,15H1.87A1.87,1.87,0,0,1,0,13.13V1.87A1.87,1.87,0,0,1,1.87,0Z"/></clipPath></defs><g id="Layer_2" data-name="Layer 2"><g id="Layer_1-2" data-name="Layer 1"><g class="cls-2"><path class="cls-3" d="M11.78,5.47h2.89a.21.21,0,0,1,.19.32l-1.43,2.7a.22.22,0,0,1-.38,0l-1.46-2.7A.21.21,0,0,1,11.78,5.47Z" transform="translate(-0.27 -0.16)"/><path class="cls-3" d="M3.38,9.47H.48A.21.21,0,0,1,.3,9.15L1.73,6.44a.21.21,0,0,1,.37,0l1.47,2.7A.22.22,0,0,1,3.38,9.47Z" transform="translate(-0.27 -0.16)"/><path class="cls-3" d="M9.58,11.67v2.89a.21.21,0,0,1-.32.19L6.55,13.32a.22.22,0,0,1,0-.38l2.71-1.46A.21.21,0,0,1,9.58,11.67Z" transform="translate(-0.27 -0.16)"/><path class="cls-3" d="M2.5,12.69a.15.15,0,0,1-.15-.14V9.47H1.51v3.08a1,1,0,0,0,1,1H5.58v-.85Z" transform="translate(-0.27 -0.16)"/><path class="cls-3" d="M2.35,2.39a.15.15,0,0,1,.15-.15H5.58V1.4H2.5a1,1,0,0,0-1,1V5.47h.84Z" transform="translate(-0.27 -0.16)"/><path class="cls-3" d="M12.66,2.24a.15.15,0,0,1,.14.15V5.47h.85V2.39a1,1,0,0,0-1-1H9.58v.84Z" transform="translate(-0.27 -0.16)"/><path class="cls-3" d="M12.8,12.55a.14.14,0,0,1-.14.14H9.58v.85h3.08a1,1,0,0,0,1-1V9.47H12.8Z" transform="translate(-0.27 -0.16)"/><path class="cls-3" d="M5.58,3.27V.37A.21.21,0,0,1,5.9.19L8.6,1.62A.21.21,0,0,1,8.6,2L5.9,3.46A.22.22,0,0,1,5.58,3.27Z" transform="translate(-0.27 -0.16)"/></g></g></g></svg>