<?xml version="1.0" encoding="UTF-8" standalone="no"?>
<svg
   xmlns:dc="http://purl.org/dc/elements/1.1/"
   xmlns:cc="http://creativecommons.org/ns#"
   xmlns:rdf="http://www.w3.org/1999/02/22-rdf-syntax-ns#"
   xmlns:svg="http://www.w3.org/2000/svg"
   xmlns="http://www.w3.org/2000/svg"
   xmlns:sodipodi="http://sodipodi.sourceforge.net/DTD/sodipodi-0.dtd"
   xmlns:inkscape="http://www.inkscape.org/namespaces/inkscape"
   inkscape:version="1.0 (4035a4fb49, 2020-05-01)"
   sodipodi:docname="carnot rectangular.svg"
   id="svg357"
   version="1.1"
   viewBox="0 0 512 512">
  <metadata
     id="metadata361">
    <rdf:RDF>
      <cc:Work
         rdf:about="">
        <dc:format>image/svg+xml</dc:format>
        <dc:type
           rdf:resource="http://purl.org/dc/dcmitype/StillImage" />
        <dc:title></dc:title>
      </cc:Work>
    </rdf:RDF>
  </metadata>
  <sodipodi:namedview
     inkscape:current-layer="Layer_1-2"
     inkscape:window-maximized="1"
     inkscape:window-y="-8"
     inkscape:window-x="-8"
     inkscape:cy="297.52837"
     inkscape:cx="168.0259"
     inkscape:zoom="0.71263105"
     showgrid="false"
     id="namedview359"
     inkscape:window-height="706"
     inkscape:window-width="1366"
     inkscape:pageshadow="2"
     inkscape:pageopacity="0"
     guidetolerance="10"
     gridtolerance="10"
     objecttolerance="10"
     borderopacity="1"
     bordercolor="#666666"
     pagecolor="#ffffff" />
  <defs
     id="defs335">
    <style
       id="style333">.cls-1{fill:white;}.cls-2{fill:white;}.cls-3{fill:none;}</style>
  </defs>
  <g
     data-name="Layer 2"
     id="Layer_2">
    <g
       data-name="Layer 1"
       id="Layer_1-2">
      <g
         inkscape:export-ydpi="96"
         inkscape:export-xdpi="96"
         inkscape:export-filename="C:\Users\Kartik\Desktop\Carnot Research\Website\html\Version-1\images\gimp\Carnot Original\Carnot Cycle Rectangular- 008080.png"
         style="fill:#008080;stroke:#ffffff"
         transform="matrix(0.65628727,0,0,0.65628727,167.98434,83.98434)"
         id="g381">
        <path
           class="cls-1"
           d="M 427.25,216.8 H 484 a 4.23,4.23 0 0 1 3.7,6.29 l -28,53 a 4.23,4.23 0 0 1 -7.38,0 l -28.66,-53 a 4.23,4.23 0 0 1 3.59,-6.29 z"
           id="path337"
           style="stroke:#ffffff;fill:#008080" />
        <path
           class="cls-1"
           d="M 183.2,427.25 V 484 c 0.004,3.23065 -3.46834,5.27332 -6.29,3.7 l -53,-28 c -2.88261,-1.61554 -2.88261,-5.76446 0,-7.38 l 53,-28.66 c 2.77958,-1.55111 6.2119,0.40788 6.29,3.59 z"
           id="path341"
           style="stroke:#ffffff;fill:#008080"
           sodipodi:nodetypes="ccccccc" />
        <g
           style="fill:#008080;stroke:#ffffff"
           id="g365">
          <g
             style="fill:#008080;stroke:#ffffff"
             id="g369"
             transform="translate(-124)">
            <path
               class="cls-1"
               d="m -41.25,295.2 h -56.7 c -3.23065,0.004 -5.27332,-3.46834 -3.7,-6.29 l 28,-53 c 1.615545,-2.88261 5.764455,-2.88261 7.38,0 l 28.66,53 c 1.560799,2.79859 -0.435865,6.24886 -3.64,6.29 z"
               id="path339"
               style="stroke:#ffffff;fill:#008080"
               sodipodi:nodetypes="ccccccc" />
            <path
               class="cls-2"
               d="M -50,451.52 C -58.569173,451.514 -65.514484,444.56917 -65.52,436 V 295.2 h -9 V 436 c 0.01656,13.52869 10.991304,24.48553 24.52,24.48 h 266.8 v -9 z"
               id="path343"
               style="stroke:#ffffff;fill:#008080"
               sodipodi:nodetypes="ccccccccc" />
          </g>
        </g>
        <path
           class="cls-2"
           d="m -187.52,76 c 0.006,-8.569173 6.95083,-15.514484 15.52,-15.52 h 272.8 v -9 H -172 c -13.52869,0.01656 -24.48553,10.991304 -24.48,24.52 v 140.8 h 9 z"
           id="path345"
           style="stroke:#ffffff;fill:#008080"
           sodipodi:nodetypes="ccccccccc" />
        <path
           class="cls-2"
           d="m 436,60.48 c 8.56917,0.0055 15.51448,6.950827 15.52,15.52 v 140.8 h 9 V 76 C 460.50344,62.471313 449.5287,51.51447 436,51.52 H 185.2 v 9 z"
           id="path347"
           style="stroke:#ffffff;fill:#008080"
           sodipodi:nodetypes="ccccccccc" />
        <path
           class="cls-2"
           d="m 451.52,436 c -0.006,8.56917 -6.95083,15.51448 -15.52,15.52 H 183.2 v 9 H 436 c 13.52869,-0.0166 24.48553,-10.9913 24.48,-24.52 V 295.2 h -9 z"
           id="path349"
           style="stroke:#ffffff;fill:#008080"
           sodipodi:nodetypes="ccccccccc" />
        <path
           class="cls-1"
           d="m 102.8,84.75 v -56.7 c -0.004,-3.230646 3.46834,-5.273321 6.29,-3.7 l 53,28 c 2.88261,1.615545 2.88261,5.764455 0,7.38 l -53,28.66 c -2.79859,1.560799 -6.24886,-0.435865 -6.29,-3.64 z"
           id="path351"
           style="stroke:#ffffff;fill:#008080"
           sodipodi:nodetypes="ccccccc" />
      </g>
      <rect
         y="1.4032507"
         x="2.8065014"
         style="stroke:#000000"
         id="rect353"
         height="512"
         width="512"
         class="cls-3" />
    </g>
  </g>
</svg>
