<svg xmlns="http://www.w3.org/2000/svg" viewBox="0 0 512 512"><defs><style>.cls-1{fill:white;}.cls-2{fill:white;}.cls-3{fill:none;}</style></defs><g id="Layer_2" data-name="Layer 2"><g id="Layer_1-2" data-name="Layer 1"><path class="cls-1" d="M427.25,216.8H484a4.23,4.23,0,0,1,3.7,6.29l-28,53a4.23,4.23,0,0,1-7.38,0l-28.66-53A4.23,4.23,0,0,1,427.25,216.8Z"/><path class="cls-1" d="M84.75,295.2H28.05a4.23,4.23,0,0,1-3.7-6.29l28-53a4.23,4.23,0,0,1,7.38,0l28.66,53A4.23,4.23,0,0,1,84.75,295.2Z"/><path class="cls-1" d="M295.2,427.25V484a4.23,4.23,0,0,1-6.29,3.7l-53-28a4.23,4.23,0,0,1,0-7.38l53-28.66A4.23,4.23,0,0,1,295.2,427.25Z"/><path class="cls-2" d="M76,451.52A15.53,15.53,0,0,1,60.48,436V295.2h-9V436A24.51,24.51,0,0,0,76,460.48H216.8v-9Z"/><path class="cls-2" d="M60.48,76A15.53,15.53,0,0,1,76,60.48H216.8v-9H76A24.51,24.51,0,0,0,51.52,76V216.8h9Z"/><path class="cls-2" d="M436,60.48A15.53,15.53,0,0,1,451.52,76V216.8h9V76A24.51,24.51,0,0,0,436,51.52H295.2v9Z"/><path class="cls-2" d="M451.52,436A15.53,15.53,0,0,1,436,451.52H295.2v9H436A24.51,24.51,0,0,0,460.48,436V295.2h-9Z"/><path class="cls-1" d="M216.8,84.75V28.05a4.23,4.23,0,0,1,6.29-3.7l53,28a4.23,4.23,0,0,1,0,7.38l-53,28.66A4.23,4.23,0,0,1,216.8,84.75Z"/><rect class="cls-3" width="512" height="512"/></g></g></svg>
